<svg xmlns="http://www.w3.org/2000/svg" height="24" viewBox="0 -960 960 960" width="24"><path d="M152.796-242.617q-14.346 0-24.237-10.052-9.891-10.052-9.891-23.999t9.891-23.742q9.891-9.795 24.237-9.795h655.075q13.696 0 23.578 9.93 9.883 9.93 9.883 23.877 0 13.946-9.883 23.864-9.882 9.917-23.578 9.917H152.796Zm0-204.256q-14.346 0-24.237-10.052-9.891-10.052-9.891-23.999t9.891-23.742q9.891-9.795 24.237-9.795h655.075q13.696 0 23.578 9.93 9.883 9.929 9.883 23.876 0 13.947-9.883 23.865-9.882 9.917-23.578 9.917H152.796Zm0-204.256q-14.346 0-24.237-10.052-9.891-10.052-9.891-23.999t9.891-23.742q9.891-9.795 24.237-9.795h655.075q13.696 0 23.578 9.93 9.883 9.929 9.883 23.876 0 13.947-9.883 23.865-9.882 9.917-23.578 9.917H152.796Z"/></svg>